<svg width="22" height="16" fill="none" xmlns="http://www.w3.org/2000/svg"><g clip-path="url(#a)"><path d="M20.625.5H1.375C1.01.5.661.632.403.866A1.195 1.195 0 0 0 0 1.75v12.5c0 .332.145.65.403.884.258.234.607.366.972.366h19.25c.365 0 .714-.132.972-.366.258-.235.403-.553.403-.884V1.75c0-.332-.145-.65-.403-.884A1.448 1.448 0 0 0 20.625.5Zm-1.059 13.75H2.516L7.33 9.725s.084-.617-.11-.787c-.194-.17-.88-.082-.88-.082l-4.964 4.669V2.7l8.546 7.731c.257.233.606.364.969.364s.712-.13.97-.364l8.765-7.925v10.938l-5.06-4.6s-.549-.088-.784.094c-.263.203-.185.787-.185.787l4.97 4.525ZM2.276 1.75H19.51L10.89 9.544 2.276 1.75Z" fill="#454545"/></g><defs><clipPath id="a"><path fill="#fff" transform="translate(0 .5)" d="M0 0h22v15H0z"/></clipPath></defs></svg>