<svg
    width="768"
    height="768"
    viewBox="0 0 768 768"
    fill="none"
    xmlns="http://www.w3.org/2000/svg"
>
    <path
        fill-rule="evenodd"
        clip-rule="evenodd"
        d="M384 768C596.077 768 768 596.077 768 384C768 171.923 596.077 0 384 0C171.923 0 0 171.923 0 384C0 596.077 171.923 768 384 768ZM384 658.286C535.483 658.286 658.285 535.484 658.285 384.001C658.285 232.517 535.483 109.715 384 109.715C232.516 109.715 109.714 232.517 109.714 384.001C109.714 535.484 232.516 658.286 384 658.286Z"
        fill="#E6EAF4"
        fill-opacity="0.25"
    />
    <path
        fill-rule="evenodd"
        clip-rule="evenodd"
        d="M384.5 621C517.877 621 626 512.877 626 379.5C626 246.123 517.877 138 384.5 138C251.123 138 143 246.123 143 379.5C143 512.877 251.123 621 384.5 621ZM384.5 552C479.769 552 557 474.769 557 379.5C557 284.231 479.769 207 384.5 207C289.231 207 212 284.231 212 379.5C212 474.769 289.231 552 384.5 552Z"
        fill="#E6EAF4"
        fill-opacity="0.4"
    />
    <path
        fill-rule="evenodd"
        clip-rule="evenodd"
        d="M384.5 527C465.962 527 532 460.962 532 379.5C532 298.038 465.962 232 384.5 232C303.038 232 237 298.038 237 379.5C237 460.962 303.038 527 384.5 527ZM384.5 484.857C442.687 484.857 489.857 437.687 489.857 379.5C489.857 321.313 442.687 274.143 384.5 274.143C326.313 274.143 279.143 321.313 279.143 379.5C279.143 437.687 326.313 484.857 384.5 484.857Z"
        fill="#E6EAF4"
        fill-opacity="0.6"
    />
    <circle cx="385" cy="380" r="75" fill="#E6EAF4" fill-opacity="0.8" />
</svg>