<svg width="14" height="14" viewBox="0 0 14 14" fill="none" xmlns="http://www.w3.org/2000/svg">
	<path d="M7 1.42188C5.89675 1.42187 4.81828 1.74903 3.90096 2.36196C2.98364 2.97489 2.26868 3.84607 1.84649 4.86534C1.42429 5.88461 1.31383 7.00619 1.52906 8.08824C1.74429 9.17029 2.27556 10.1642 3.05567 10.9443C3.83579 11.7244 4.82971 12.2557 5.91176 12.4709C6.99381 12.6862 8.11539 12.5757 9.13466 12.1535C10.1539 11.7313 11.0251 11.0164 11.638 10.099C12.251 9.18172 12.5781 8.10325 12.5781 7C12.5764 5.52112 11.9881 4.10331 10.9424 3.05759C9.89669 2.01186 8.47888 1.42361 7 1.42188ZM7 11.9219C6.02655 11.9219 5.07495 11.6332 4.26556 11.0924C3.45616 10.5516 2.82531 9.78288 2.45278 8.88352C2.08026 7.98416 1.98279 6.99454 2.1727 6.03979C2.36261 5.08504 2.83137 4.20805 3.51971 3.51971C4.20805 2.83137 5.08504 2.36261 6.03979 2.1727C6.99454 1.98279 7.98417 2.08026 8.88352 2.45278C9.78288 2.82531 10.5516 3.45615 11.0924 4.26555C11.6332 5.07495 11.9219 6.02654 11.9219 7C11.9204 8.30492 11.4014 9.55597 10.4787 10.4787C9.55598 11.4014 8.30492 11.9204 7 11.9219ZM5.14063 7C5.14063 7.39025 5.26342 7.77061 5.4916 8.08719C5.71978 8.40378 6.04179 8.64055 6.41202 8.76396C6.78224 8.88737 7.18191 8.89116 7.55441 8.7748C7.92691 8.65844 8.25335 8.42782 8.4875 8.11562C8.53979 8.046 8.61759 8.00001 8.70379 7.98775C8.78999 7.9755 8.87753 7.99799 8.94715 8.05027C9.01677 8.10256 9.06277 8.18036 9.07502 8.26656C9.08728 8.35276 9.06479 8.4403 9.0125 8.50992C8.69563 8.93218 8.25395 9.24404 7.75 9.40135C7.24606 9.55866 6.70539 9.55344 6.20458 9.38642C5.70376 9.21941 5.26819 8.89907 4.95953 8.47077C4.65088 8.04247 4.48479 7.52793 4.48479 7C4.48479 6.47207 4.65088 5.95752 4.95953 5.52923C5.26819 5.10093 5.70376 4.78059 6.20458 4.61358C6.70539 4.44656 7.24606 4.44134 7.75 4.59865C8.25395 4.75596 8.69563 5.06782 9.0125 5.49008C9.06479 5.5597 9.08728 5.64724 9.07502 5.73344C9.06277 5.81964 9.01677 5.89744 8.94715 5.94973C8.87753 6.00201 8.78999 6.0245 8.70379 6.01225C8.61759 5.99999 8.53979 5.95399 8.4875 5.88437C8.25335 5.57217 7.92691 5.34156 7.55441 5.2252C7.18191 5.10884 6.78224 5.11263 6.41202 5.23604C6.04179 5.35945 5.71978 5.59622 5.4916 5.9128C5.26342 6.22939 5.14063 6.60975 5.14063 7Z" fill="#424242" />
</svg>
