<svg xmlns="http://www.w3.org/2000/svg" width="2367" height="2000" fill="none">
	<path fill="#424242" d="M61.479 782.4h155.04c19.493 0 33.773 2.493 42.84 7.48 9.52 4.533 15.64 11.787 18.36 21.76 3.173 9.52 4.76 21.533 4.76 36.04v106.08c0 16.32-1.36 31.733-4.08 46.24-2.72 14.05-9.747 25.61-21.08 34.68-11.334 8.61-29.92 12.92-55.76 12.92h-65.96V1204h-74.12V782.4Zm115.6 207.4c11.333 0 19.493-3.173 24.48-9.52 4.986-6.347 7.48-16.773 7.48-31.28v-66.64c0-18.133-2.04-29.693-6.12-34.68-3.627-4.987-11.107-7.48-22.44-7.48h-44.88v149.6h41.48Zm245.368 217.6c-20.4 0-38.76-2.04-55.08-6.12s-29.24-10.65-38.76-19.72c-9.066-9.52-13.6-22.21-13.6-38.08V782.4h74.12v337.96c0 4.99.907 9.75 2.72 14.28 1.814 4.53 5.214 8.16 10.2 10.88 4.987 2.72 11.787 4.08 20.4 4.08 9.52 0 16.774-1.36 21.76-4.08 4.987-2.72 8.387-6.35 10.2-10.88 1.814-4.99 2.72-9.75 2.72-14.28V782.4h74.12v361.08c0 15.87-4.76 28.56-14.28 38.08-9.066 9.07-21.986 15.64-38.76 19.72-16.32 4.08-34.906 6.12-55.76 6.12Zm152.857-425h74.12v363.8h122.4v57.8h-196.52V782.4Zm332.445 426.36c-19.946 0-38.76-1.36-56.44-4.08-17.226-2.72-31.053-7.93-41.48-15.64-9.973-8.16-14.96-19.72-14.96-34.68v-95.2l73.44-8.16v72.76c0 8.16 2.267 14.73 6.8 19.72 4.987 4.53 14.507 6.8 28.56 6.8 9.067 0 16.094-1.13 21.08-3.4 4.987-2.72 8.387-6.35 10.2-10.88 1.814-4.53 2.72-10.2 2.72-17v-45.56c0-12.24-2.946-23.12-8.84-32.64-5.44-9.52-15.64-16.55-30.6-21.08l-46.92-14.28c-19.946-6.347-34.453-14.507-43.52-24.48-8.613-9.973-12.92-25.613-12.92-46.92v-88.4c0-19.947 4.987-34.68 14.96-44.2 9.974-9.52 23.574-15.64 40.8-18.36 17.227-3.173 36.04-4.76 56.44-4.76 19.494 0 36.947 1.587 52.36 4.76 15.867 3.173 28.334 8.84 37.4 17 9.521 7.707 14.281 18.587 14.281 32.64v95.2l-73.441 10.2v-68.68c0-14.053-2.493-23.12-7.48-27.2-4.533-4.533-13.146-6.8-25.84-6.8-13.146 0-22.44 2.72-27.88 8.16-5.44 4.987-8.16 15.187-8.16 30.6v39.44c0 10.427 2.267 20.173 6.8 29.24 4.987 8.613 12.92 14.733 23.8 18.36l52.36 16.32c21.307 6.8 36.494 15.413 45.56 25.84 9.521 9.97 14.281 25.61 14.281 46.92v89.08c0 19.49-4.53 34.23-13.601 44.2-9.066 9.97-21.533 16.77-37.4 20.4-15.413 3.17-32.866 4.76-52.36 4.76ZM1051.94 782.4h208.08v57.8h-133.96v103.36h119.68l-9.52 57.8h-110.16v144.84h133.96v57.8h-208.08V782.4Zm308.91 421.6-84.32-421.6h74.12l46.92 272 .68 14.28h.68v-14.28l42.84-252.96h55.76l40.8 252.96.68 14.28h.68l.68-14.28 42.84-272h76.84l-82.96 421.6h-70.04l-35.36-231.2-.68-13.6h-.68l-.68 13.6-38.76 231.2h-70.04Zm258.91 0 87.72-421.6h81.6l87.04 421.6h-76.84l-17.68-91.12 12.24 11.56H1700l10.2-11.56-15.64 91.12h-74.8Zm93.16-129.88-6.8-8.16h83.64l-9.52 8.16L1751 881.68l-.68-12.92h-5.44l-.68 12.92-31.28 192.44ZM1922.49 1204l-87.72-421.6h73.44l51 309.4.68 14.28h.68v-14.28l47.6-309.4h76.84l-87.72 421.6h-74.8Zm186.32-421.6h208.08v57.8h-133.96v103.36h119.68l-9.52 57.8h-110.16v144.84h133.96v57.8h-208.08V782.4Z" />
	<path fill="#424242" fill-rule="evenodd" d="M1183.52 2000c467.4 0 859.9-320.67 969.51-754h-235.8c-102.63 306.85-392.35 528-733.73 528-341.377 0-631.104-221.15-733.729-528H214c109.613 433.33 502.117 754 969.52 754ZM450.443 753H214.254C324.217 320.172 716.477 0 1183.52 0c467.04 0 859.29 320.172 969.26 753h-236.22c-103.22-305.811-392.43-526-733.06-526-340.635 0-629.844 220.189-733.057 526Z" clip-rule="evenodd" />
	<path fill="#424242" fill-rule="evenodd" d="M1628.73 1228H738.512c82.892 161.5 251.095 272 445.108 272 194.01 0 362.22-110.5 445.11-272Zm.51-455H738c82.709-162.042 251.207-273 445.62-273 194.42 0 362.91 110.958 445.62 273Z" clip-rule="evenodd" />
</svg>
